<?xml version="1.0" encoding="utf-8"?>
<!-- Generator: Adobe Illustrator 16.0.0, SVG Export Plug-In . SVG Version: 6.00 Build 0)  -->
<!DOCTYPE svg PUBLIC "-//W3C//DTD SVG 1.1//EN" "http://www.w3.org/Graphics/SVG/1.1/DTD/svg11.dtd">
<svg version="1.1" id="Layer_1" xmlns="http://www.w3.org/2000/svg" xmlns:xlink="http://www.w3.org/1999/xlink" x="0px" y="0px"
	 width="103.63px" height="25.734px" viewBox="0 0 103.63 25.734" enable-background="new 0 0 103.63 25.734" xml:space="preserve">
<g>
	<path fill="#BF1F45" d="M96.613,17.791h4.358V15.3h-0.996V5.026h-4.856v2.491h1.308v2.429c-0.747-0.623-1.682-1.121-2.678-1.121
		c-2.802,0-4.109,1.993-4.109,4.608c0,2.303,1.494,4.545,3.984,4.545c1.184,0.062,2.18-0.436,2.989-1.308V17.791z M94.995,14.99
		c-0.935,0-1.619-0.748-1.619-1.62s0.747-1.681,1.619-1.681c0.871,0,1.681,0.748,1.681,1.681
		C96.613,14.304,95.866,14.99,94.995,14.99z"/>
	<path fill="#BF1F45" d="M15.106,8.638V5.026h-3.175v0.997c-0.996-0.934-1.993-1.246-3.362-1.246c-3.113,0-4.857,1.993-4.857,4.047
		c0,2.74,2.055,3.549,4.047,3.923c2.055,0.436,4.047,0.436,4.047,1.557c0,0.872-0.997,1.059-1.806,1.059
		c-0.561,0-1.121-0.125-1.557-0.373c-0.436-0.25-0.81-0.623-1.059-1.184H4.147v3.984h3.175v-1.058
		c0.872,0.996,2.18,1.308,3.362,1.308c2.74,0,4.795-1.433,4.795-4.297s-1.993-3.736-4.047-4.171C9.502,9.261,7.447,9.261,7.447,8.14
		c0-0.685,0.872-0.934,1.557-0.934c0.685,0,1.246,0.125,1.744,0.374s0.872,0.561,1.183,0.996h3.175V8.638z"/>
	<path fill="#BF1F45" d="M20.461,9.198h-4.172v2.491h0.934V15.3h-0.934v2.49h5.479V15.3h-0.934v-2.677
		c0-0.81,0.499-1.059,1.059-1.059c0.685,0,0.997,0.249,0.997,1.059v5.167h4.483V15.3h-0.934v-2.677c0-0.872,0.436-1.059,0.997-1.059
		c0.685,0,1.059,0.312,1.059,0.997v5.229h4.483V15.3h-0.934v-3.611c0-1.93-1.058-2.802-2.74-2.802c-1.121,0-2.179,0.436-3.051,1.183
		c-0.623-0.872-1.495-1.246-2.553-1.183c-1.245,0-2.428,0.436-3.238,1.37V9.198z"/>
	<polygon fill="#BF1F45" points="39.515,15.3 38.519,15.3 38.519,9.198 33.973,9.198 33.973,11.689 34.969,11.689 34.969,15.3 
		33.973,15.3 33.973,17.791 39.515,17.791 	"/>
	<polygon fill="#BF1F45" points="72.516,15.3 71.52,15.3 71.52,9.198 66.974,9.198 66.974,11.751 67.97,11.751 67.97,15.3 
		66.974,15.3 66.974,17.791 72.516,17.791 	"/>
	<path fill="#BF1F45" d="M46.551,7.58h0.934V15.3h-0.997v2.49h5.542V15.3h-0.996v-2.615c0-1.059,0.747-1.246,1.307-1.246
		c0.499,0,1.121,0.187,1.121,1.246v5.105h4.67V15.3h-0.996v-3.922c0-1.246-0.437-2.429-2.864-2.429
		c-0.934,0-1.744,0.125-3.238,0.623V5.026h-4.483V7.58z"/>
	<path fill="#BF1F45" d="M79.801,15.051c-0.312,0.499-0.872,0.747-1.494,0.747c-1.121,0-1.744-0.622-1.682-1.681h6.538
		c0-3.487-1.37-5.293-4.981-5.293c-2.864,0-5.23,1.619-5.23,4.67c0,2.241,1.37,4.483,5.542,4.483c1.681,0,3.673-0.686,4.421-2.366
		L79.801,15.051z M76.563,12.748c0-0.934,0.561-1.743,1.744-1.743c1.12,0,1.494,0.747,1.494,1.743H76.563z"/>
	<polygon fill="#BF1F45" points="83.599,7.58 84.658,7.58 84.658,15.3 83.599,15.3 83.599,17.791 89.266,17.791 89.266,15.3 
		88.208,15.3 88.208,5.026 83.599,5.026 	"/>
	<path fill="#BF1F45" d="M36.588,8.202c-1.121,0-1.931-0.872-1.931-1.993c0-1.059,0.872-1.992,1.931-1.992
		c1.058,0,1.992,0.872,1.992,1.992C38.581,7.331,37.646,8.202,36.588,8.202z"/>
	<path fill="#BF1F45" d="M44.309,5.338v3.798h1.183v2.491h-1.183v2.615c0,0.686,0.187,0.81,0.685,0.81h0.498v2.678h-2.615
		c-1.432,0-2.179-0.622-2.179-2.055v-4.047h-0.996V9.136h0.996V6.957c1.121,0,1.993-0.623,2.242-1.619H44.309z"/>
	<path fill="#BF1F45" d="M65.043,7.829c-0.187,0.498-0.311,0.996-0.436,1.37h1.494v2.553h-2.055
		c-0.809,2.864-1.432,5.043-1.992,6.725c-0.498,1.557-0.996,2.553-1.682,3.486c-0.996,1.433-2.678,1.869-3.922,1.932
		c-0.748,0.062-1.869-0.188-2.242-0.561l0.747-1.807c0.249,0.062,0.499,0.125,0.747,0.125c0.623,0,1.309-0.249,1.868-0.934
		c0.623-0.748,0.872-1.682,1.37-3.301c0.747-2.49,1.619-5.604,1.619-5.604h-2.117V9.198h2.864c0.249-0.623,0.622-1.494,0.934-2.366
		c0,0,0.437-0.872,1.121-1.744c0.747-0.872,1.557-1.619,2.739-1.93c0.996-0.249,1.807-0.187,2.553,0.062
		c0.935,0.312,1.557,0.997,1.931,1.619s0.561,1.557,0.312,2.304s-0.934,1.121-1.557,1.059c-0.561-0.062-1.059-0.436-1.308-0.872
		c-0.249-0.436-0.124-0.997-0.062-1.121c0.062-0.125,0.249-0.311,0.249-0.311s-0.062-0.249-0.311-0.374
		c-0.188-0.062-0.811-0.249-1.557,0.311C65.604,6.458,65.231,7.144,65.043,7.829z"/>
</g>
</svg>
