<svg height='100px' width='100px'  fill="#ffffff" xmlns="http://www.w3.org/2000/svg" xmlns:xlink="http://www.w3.org/1999/xlink" version="1.1" x="0px" y="0px" viewBox="0 0 183.898 248.116" style="enable-background:new 0 0 183.898 248.116;" xml:space="preserve"><g><path d="M52.608,235.752v-26.286c-1.805-4.966-2.451-9.415-2.716-13.074c-1.434-1.617-2.849-3.586-4.225-5.859   c-0.903-1.5-2.506-4.36-3.655-7.528c-5.391-2.211-8.686-10.359-7.553-15.94c0.188-0.904,0.995-1.965,2.658-1.965   c0.892,0,2.21,0.341,2.996,1.3c0.486,0.593,0.684,1.349,0.538,2.083c-0.296,1.454-0.146,3.042,0.483,5.02   c0.578-1.69,1.609-2.773,2.625-3.466c0.777-0.531,1.605-0.801,2.464-0.801c2.866,0,4.769,2.891,5.385,5.757   c0.766,3.57-0.408,6.628-3.008,7.801c-0.04,0.018-0.079,0.033-0.118,0.052c0.436,1.149,0.982,2.355,1.647,3.628   c0.458-1.834,1.293-3.9,2.477-6.083v-25.91h4.772v18.932c5.448-6.601,13.742-13.296,24.729-17.638v-27.96   c0-0.593-0.056-1.171-0.137-1.742V96.619c5.036,6.926,9.863,17.168,9.893,32.351c0,4.064-0.356,8.493-1.176,13.319   c-0.742,4.356,2.19,8.487,6.547,9.227c0.334,0.057,0.666,0.085,0.996,0.1c0.824-0.11,1.662-0.202,2.507-0.285   c2.882-0.812,5.188-3.213,5.725-6.361c0.963-5.667,1.4-10.999,1.4-15.999c0.032-19.933-7.072-34.4-14.268-43.52   c-7.199-9.161-14.338-13.212-14.965-13.57c-0.336-0.188-0.682-0.338-1.03-0.473c-1.016-0.492-2.152-0.775-3.357-0.775H35.608   c-0.648,0-1.274,0.088-1.876,0.239c-0.365,0.01-0.733,0.036-1.104,0.098h-0.003c-0.983,0.174-8.613,1.599-16.252,8.999   c-7.674,7.378-14.49,20.637-14.412,41.571c0.002,10.398,1.591,22.753,5.398,37.568c0.929,3.612,4.18,6.011,7.744,6.011   c0.659,0,1.328-0.082,1.996-0.254c4.278-1.101,6.857-5.462,5.756-9.74c-3.544-13.777-4.896-24.829-4.896-33.585   c0.079-17.728,5.255-25.809,9.574-30.106c0.115-0.112,0.229-0.211,0.345-0.319v36.7v18.939v89c0,6.828,5.537,12.363,12.365,12.363   C47.07,248.116,52.608,242.581,52.608,235.752z"></path><path d="M57.379,219.065v16.688c0,6.828,5.537,12.363,12.365,12.363c3.043,0,5.826-1.105,7.98-2.929   c-6.094-8.061-11.164-14.747-11.872-15.68C62.292,225.933,59.529,222.433,57.379,219.065z"></path><path d="M34.544,56.024c-1.275-2.14-2.256-4.495-2.848-7.037c-3.063-13.155,5.146-26.349,18.303-29.411   c1.832-0.428,3.707-0.644,5.574-0.644c9.667,0,18.151,5.581,22.119,14.043c12.945-10.494,19.811-21.247,16.43-27.674   C90.05-2.436,72.402-1.478,51.891,6.7c-2.597-3.493-9.514-3.577-15.979-0.048c-6.175,3.37-9.794,8.867-8.773,12.903   C8.041,32.017-3.303,46.467,0.857,54.374C4.35,61.011,17.834,61.25,34.544,56.024z"></path><path d="M50.45,21.524c-12.098,2.816-19.623,14.91-16.807,27.01c0.582,2.499,1.565,4.799,2.856,6.857   c4.963,7.906,14.553,12.185,24.153,9.95C72.755,62.524,80.28,50.43,77.462,38.331c-0.333-1.429-0.799-2.791-1.375-4.082   C71.784,24.601,61.121,19.039,50.45,21.524z"></path><path d="M57.379,176.739c-2.279,3.114-3.869,6.085-4.772,8.583c-0.601,1.665-0.905,3.124-0.905,4.271c0,1.042,0,2.156,0.027,3.33   c-0.695-0.971-1.306-1.921-1.789-2.728c-1.595-2.635-3.127-5.602-4-8.677c0.597-0.099,1.214-0.276,1.856-0.559   c4.325-1.945,1.01-11.947-2.909-9.273c-2.477,1.689-2.578,4.896-1.745,8.213c-1.625-0.839-2.857-2.982-3.383-4.307   c-0.937-2.4-1.591-4.936-1.066-7.511c0.163-0.821-2.112-1.39-2.275-0.611c-0.972,4.779,2.059,12.689,7.164,13.949   c1.044,3.211,2.746,6.332,3.802,8.082c1.141,1.894,2.648,4.122,4.456,6.063c0.122,1.964,0.35,4.074,0.768,6.305   c0.764,4.064,2.175,8.531,4.772,13.271c2.285,4.169,5.485,8.548,9.982,13.045c0,0,5.292,6.978,11.792,15.576   c0.823,1.089,1.664,2.2,2.518,3.331c3.855,0,10.129,0,14.242,0c6.488-7.521-7.278-18.332,3.482-18.332   c10.761,0,18.515,0.712,24.924,5.934c6.409,5.223,7.813,10.133,10.682,11.157c3.323,1.186,12.242,0.733,15.192,0.733   c-0.475-8.33-8.934-13.088-8.934-13.088s14.683-7.545,23.912-14.893c9.228-7.341,14.682-6.293,14.682-6.293   s4.614-8.809,3.985-24.121c0,0-11.746-3.773-18.877-11.324c0,0-1.776-2.294-5.361-5.467c3.36-7.249,8.998-12.387,16.55-11.168   c-0.838-5.88-13.431-7.558-18.458-7.558c-5.335,0.225-11.018,3.455-14.11,8.146c-8.928-4.345-20.692-7.864-35.395-7.864   c-10.08,0-18.752,1.928-26.08,4.917C70.512,162.599,62.314,169.998,57.379,176.739z M45.234,177.813   c-0.111-1.395-0.209-3.539,0.949-4.613c1.056-0.977,1.475,3.048,1.299,3.999c-0.163,0.858-0.394,1.886-1.167,2.433   c-0.256,0.175-0.499,0.3-0.741,0.398C45.417,179.295,45.291,178.554,45.234,177.813z M161.476,182.591   c2.411,0,4.371,1.962,4.371,4.373c0,2.412-1.96,4.366-4.371,4.366c-2.412,0-4.365-1.954-4.365-4.366   C157.111,184.553,159.064,182.591,161.476,182.591z"></path></g></svg>